<svg width="11" height="16" viewBox="0 0 11 16" fill="none" xmlns="http://www.w3.org/2000/svg">
    <path d="M5.15554 15.5455V0.0909082H6.1456V15.5455H5.15554ZM7.78161 5.19212C7.73331 4.70514 7.52604 4.32682 7.1598 4.05717C6.79356 3.78752 6.29652 3.6527 5.66868 3.6527C5.24207 3.6527 4.88187 3.71307 4.58807 3.83381C4.29427 3.95052 4.06889 4.11352 3.91193 4.3228C3.759 4.53208 3.68253 4.76953 3.68253 5.03516C3.67448 5.25651 3.72076 5.44969 3.82138 5.6147C3.92602 5.77971 4.06889 5.92259 4.25 6.04332C4.43111 6.16004 4.64039 6.26267 4.87784 6.35121C5.11529 6.43572 5.36884 6.50817 5.63849 6.56854L6.74929 6.83416C7.28859 6.9549 7.78362 7.11589 8.23438 7.31712C8.68513 7.51835 9.07552 7.76586 9.40554 8.05966C9.73556 8.35346 9.99112 8.69957 10.1722 9.09801C10.3574 9.49645 10.4519 9.95324 10.456 10.4684C10.4519 11.225 10.2588 11.881 9.87642 12.4364C9.49811 12.9878 8.95076 13.4164 8.23438 13.7223C7.52202 14.0241 6.66276 14.1751 5.65661 14.1751C4.6585 14.1751 3.78918 14.0221 3.04865 13.7163C2.31214 13.4104 1.73662 12.9576 1.32209 12.358C0.911577 11.7543 0.696259 11.0077 0.676136 10.1183H3.20561C3.23378 10.5328 3.35251 10.8789 3.56179 11.1566C3.77509 11.4303 4.05883 11.6375 4.413 11.7784C4.77119 11.9152 5.17566 11.9837 5.62642 11.9837C6.06913 11.9837 6.45348 11.9193 6.77947 11.7905C7.10949 11.6617 7.36506 11.4826 7.54617 11.2532C7.72727 11.0238 7.81783 10.7602 7.81783 10.4624C7.81783 10.1847 7.73532 9.95123 7.57031 9.76207C7.40933 9.57292 7.17188 9.41193 6.85795 9.27912C6.54806 9.14631 6.16773 9.02557 5.71697 8.9169L4.37074 8.57883C3.32836 8.32528 2.50533 7.92886 1.90163 7.38956C1.29794 6.85026 0.998106 6.12382 1.00213 5.21023C0.998106 4.46165 1.19732 3.80765 1.59979 3.24822C2.00627 2.6888 2.56368 2.25213 3.27202 1.93821C3.98035 1.62429 4.78527 1.46733 5.68679 1.46733C6.6044 1.46733 7.4053 1.62429 8.08949 1.93821C8.7777 2.25213 9.31297 2.6888 9.69531 3.24822C10.0777 3.80765 10.2749 4.45561 10.2869 5.19212H7.78161Z" fill="#5771F9"/>
</svg>
