<svg width="14" height="14" viewBox="0 0 14 14" fill="none" xmlns="http://www.w3.org/2000/svg">
    <path d="M2.78 10.6683C2.91773 10.2779 3.17316 9.93992 3.51107 9.70083C3.84897 9.46173 4.25272 9.33333 4.66667 9.33333C5.08061 9.33333 5.48436 9.46173 5.82227 9.70083C6.16017 9.93992 6.4156 10.2779 6.55333 10.6683H13.3333V12.0016H6.55333C6.4156 12.392 6.16017 12.73 5.82227 12.9691C5.48436 13.2082 5.08061 13.3366 4.66667 13.3366C4.25272 13.3366 3.84897 13.2082 3.51107 12.9691C3.17316 12.73 2.91773 12.392 2.78 12.0016H0V10.6683H2.78ZM6.78 6.00163C6.91774 5.61128 7.17316 5.27326 7.51107 5.03416C7.84897 4.79506 8.25272 4.66667 8.66667 4.66667C9.08061 4.66667 9.48436 4.79506 9.82227 5.03416C10.1602 5.27326 10.4156 5.61128 10.5533 6.00163H13.3333V7.33497H10.5533C10.4156 7.72532 10.1602 8.06334 9.82227 8.30244C9.48436 8.54154 9.08061 8.66993 8.66667 8.66993C8.25272 8.66993 7.84897 8.54154 7.51107 8.30244C7.17316 8.06334 6.91774 7.72532 6.78 7.33497H0V6.00163H6.78ZM2.78 1.33497C2.91773 0.944612 3.17316 0.606589 3.51107 0.367493C3.84897 0.128397 4.25272 0 4.66667 0C5.08061 0 5.48436 0.128397 5.82227 0.367493C6.16017 0.606589 6.4156 0.944612 6.55333 1.33497H13.3333V2.6683H6.55333C6.4156 3.05866 6.16017 3.39668 5.82227 3.63577C5.48436 3.87487 5.08061 4.00327 4.66667 4.00327C4.25272 4.00327 3.84897 3.87487 3.51107 3.63577C3.17316 3.39668 2.91773 3.05866 2.78 2.6683H0V1.33497H2.78ZM4.66667 2.6683C4.84348 2.6683 5.01305 2.59806 5.13807 2.47304C5.2631 2.34801 5.33333 2.17844 5.33333 2.00163C5.33333 1.82482 5.2631 1.65525 5.13807 1.53023C5.01305 1.4052 4.84348 1.33497 4.66667 1.33497C4.48986 1.33497 4.32029 1.4052 4.19526 1.53023C4.07024 1.65525 4 1.82482 4 2.00163C4 2.17844 4.07024 2.34801 4.19526 2.47304C4.32029 2.59806 4.48986 2.6683 4.66667 2.6683ZM8.66667 7.33497C8.84348 7.33497 9.01305 7.26473 9.13807 7.1397C9.2631 7.01468 9.33333 6.84511 9.33333 6.6683C9.33333 6.49149 9.2631 6.32192 9.13807 6.1969C9.01305 6.07187 8.84348 6.00163 8.66667 6.00163C8.48986 6.00163 8.32029 6.07187 8.19526 6.1969C8.07024 6.32192 8 6.49149 8 6.6683C8 6.84511 8.07024 7.01468 8.19526 7.1397C8.32029 7.26473 8.48986 7.33497 8.66667 7.33497ZM4.66667 12.0016C4.84348 12.0016 5.01305 11.9314 5.13807 11.8064C5.2631 11.6813 5.33333 11.5118 5.33333 11.335C5.33333 11.1582 5.2631 10.9886 5.13807 10.8636C5.01305 10.7385 4.84348 10.6683 4.66667 10.6683C4.48986 10.6683 4.32029 10.7385 4.19526 10.8636C4.07024 10.9886 4 11.1582 4 11.335C4 11.5118 4.07024 11.6813 4.19526 11.8064C4.32029 11.9314 4.48986 12.0016 4.66667 12.0016Z" fill="#EEBB4D"/>
</svg>
