<svg width="14" height="15" viewBox="0 0 14 15" fill="none" xmlns="http://www.w3.org/2000/svg">
    <path d="M13.6666 12.0408H0.333313V10.7074H0.99998V6.06144C0.99998 2.73611 3.68665 0.0407753 6.99998 0.0407753C10.3133 0.0407753 13 2.73611 13 6.06144V10.7074H13.6666V12.0408ZM2.33331 10.7074H11.6666V6.06144C11.6666 3.47278 9.57731 1.37411 6.99998 1.37411C4.42265 1.37411 2.33331 3.47278 2.33331 6.06144V10.7074ZM5.33331 12.7074H8.66665C8.66665 13.1495 8.49105 13.5734 8.17849 13.886C7.86593 14.1985 7.44201 14.3741 6.99998 14.3741C6.55795 14.3741 6.13403 14.1985 5.82147 13.886C5.50891 13.5734 5.33331 13.1495 5.33331 12.7074Z" fill="#EEBB4D"/>
</svg>
